<svg xmlns="http://www.w3.org/2000/svg" width="164" height="207">
  <path fill="#03d803" d="M5.16 122L7.26 122L7.26 94.24C7.26 84.14 13.84 77.05 23.33 77.05C32.36 77.05 38.67 82.81 38.67 92.18L38.67 122L40.78 122L40.78 92.09C40.78 81.70 33.77 75.08 23.59 75.08C15.51 75.08 9.20 79.85 7.22 86.68L7.13 86.68L7.13 75.77L5.16 75.77ZM51.22 122L53.32 122L53.32 57.29L51.22 57.29ZM100.07"/>
  <path d="M100.07 89.34C98.57 81.14 91.31 75.08 81.86 75.08C69.57 75.08 61.70 84.32 61.70 98.88C61.70 113.49 69.52 122.69 81.86 122.69C91.48 122.69 98.53 117.02 99.99 108.81L97.84 108.81C96.42 115.81 90.23 120.67 81.86 120.67C70.73 120.67 63.85 112.20 63.85 98.88C63.85 85.56 70.77 77.05 81.86 77.05C90.15 77.05 96.46 82.21 97.93 89.34ZM106.65 87.28C106.65 93.21 110.56 96.43 118.29 98.28L125.55 99.96C133.76 101.89 137.03 104.86 137.03 110.14C137.03 116.50 130.45 120.71 122.33 120.71C114.00 120.71 107.81 115.43 107.25 108.94L105.10 108.94C105.57 116.46 112.45 122.69 122.38 122.69C132.13 122.69 139.18 117.57 139.18 110.01C139.18 103.74 135.35 100.26 126.20 98.02L119.02 96.30C112.02 94.67 108.75 92.22 108.75 87.24C108.75 81.18 115.03 77.05 122.20 77.05C130.50 77.05 135.61 82.13 136.38 89.17L138.45 89.17C137.63 80.54 131.48 75.08 122.20 75.08C113.65 75.08 106.65 80.06 106.65 87.28ZM149.32 63.39L149.32 75.77L142.44 75.77L142.44 77.70L149.32 77.70L149.32 111.95C149.32 119.16 152.07 122.04 158.30 122.04C158.43 122.04 161.52 122 161.61 122L161.61 120.02C161.56 120.02 158.47 120.07 158.43 120.07C153.53 120.07 151.42 117.79 151.42 111.90L151.42 77.70L160.79 77.70L160.79 75.77L151.42 75.77L151.42 63.39Z"/>
</svg>
