<svg height="300" viewBox="0 0 1012 300" width="1012" xmlns="http://www.w3.org/2000/svg">
  <style>
    .b {fill: #0d1117}
    .l {fill: #fff}
    @media (prefers-color-scheme: light) {
      .b {fill: #fff}
      .l {fill: #0d1117}
    }
  </style>
  <rect class="b" height="300" width="1012" x="0" y="0" />
  <path d="M419.53 140.24L419.53 171.80L423.37 171.80L423.37 153.05Q423.37 148.65 425.99 145.91Q428.61 143.17 432.86 143.17L432.86 143.17Q436.84 143.17 438.75 145.40Q440.65 147.63 440.65 152.26L440.65 152.26L440.65 171.80L444.49 171.80L444.49 151.29Q444.49 145.66 441.77 142.69Q439.04 139.72 433.89 139.72L433.89 139.72Q430.22 139.72 427.54 141.33Q424.86 142.94 423.57 145.93L423.57 145.93L423.19 145.93L423.19 140.24L419.53 140.24ZM457.09 171.80L482.84 171.80L482.84 168.69L472.03 168.69L472.03 127.68L457.03 127.68L457.03 130.78L468.19 130.78L468.19 168.69L457.09 168.69L457.09 171.80Z" fill="#03d803" />
  <path class="l" d="M515.10 149.53L518.91 149.53Q518.29 145.08 514.96 142.40Q511.64 139.72 506.75 139.72L506.75 139.72Q500.54 139.72 497.01 143.45Q493.48 147.19 493.48 153.78L493.48 153.78L493.48 158.26Q493.48 164.85 497.01 168.59Q500.54 172.32 506.75 172.32L506.75 172.32Q511.64 172.32 514.96 169.63Q518.29 166.93 518.91 162.51L518.91 162.51L515.10 162.51Q514.63 165.32 512.25 167.09Q509.88 168.87 506.66 168.87L506.66 168.87Q502.15 168.87 499.73 165.95Q497.31 163.04 497.31 157.62L497.31 157.62L497.31 154.42Q497.31 149.00 499.73 146.09Q502.15 143.17 506.66 143.17L506.66 143.17Q509.88 143.17 512.25 144.95Q514.63 146.72 515.10 149.53L515.10 149.53ZM532.26 148.45L532.26 148.45Q532.26 154.86 540.64 156.83L540.64 156.83L545.30 157.94Q548.52 158.70 549.90 159.95Q551.28 161.19 551.28 163.36L551.28 163.36Q551.28 165.94 549.18 167.49Q547.09 169.04 543.54 169.04L543.54 169.04Q540.26 169.04 538.08 167.68Q535.90 166.32 535.28 163.89L535.28 163.89L531.30 163.89Q531.74 167.78 534.99 170.05Q538.24 172.32 543.37 172.32L543.37 172.32Q548.76 172.32 552.01 169.80Q555.26 167.29 555.26 163.13L555.26 163.13Q555.26 159.79 553.12 157.72Q550.99 155.65 546.44 154.57L546.44 154.57L542.17 153.57Q538.94 152.81 537.54 151.58Q536.13 150.35 536.13 148.30L536.13 148.30Q536.13 145.84 538.09 144.38Q540.06 142.91 543.34 142.91L543.34 142.91Q546.36 142.91 548.38 144.24Q550.40 145.58 550.90 147.89L550.90 147.89L554.68 147.89Q554.18 144.14 551.13 141.93Q548.08 139.72 543.46 139.72L543.46 139.72Q538.48 139.72 535.37 142.13Q532.26 144.55 532.26 148.45ZM579.26 132.04L575.42 132.04L575.42 140.24L566.92 140.24L566.92 143.50L575.42 143.50L575.42 162.69Q575.42 165.79 576.68 167.86Q577.94 169.92 580.46 170.95Q582.98 171.97 586.76 171.97L586.76 171.97Q588.13 171.97 589.95 171.86Q591.77 171.74 592.47 171.62L592.47 171.62L592.47 168.34Q591.71 168.46 590.16 168.52Q588.60 168.57 586.96 168.57L586.96 168.57Q583.21 168.57 581.23 167.04Q579.26 165.50 579.26 162.57L579.26 162.57L579.26 143.50L592.47 143.50L592.47 140.24L579.26 140.24L579.26 132.04Z" />
</svg>
