<svg xmlns="http://www.w3.org/2000/svg" width="400" height="400" viewBox="0 0 410 210">
  <path fill="#03d803" d="M6.57 126L13.96 126L13.96 98.50C13.96 92.31 17.32 86.81 25.09 86.81C31.67 86.81 36.14 90.68 36.14 98.29L36.14 126L43.53 126L43.53 97.04C43.53 86.04 36.61 80.11 27.33 80.11C19.98 80.11 15.81 83.93 14.14 86.81L13.92 86.81L13.92 80.84L6.57 80.84ZM56.29 126L63.64 126L63.64 64.25L56.29 64.25Z"/>
  <path d="M75.28 105.46C75.28 117.49 82.03 126.73 94.02 126.73C104.37 126.73 110.04 121.32 111.55 113.58L104.29 113.58C103.47 117.19 100.16 120.20 94.53 120.20C87.31 120.20 82.67 114.36 82.67 105.50L82.67 101.29C82.67 92.18 87.01 86.64 94.49 86.64C99.39 86.64 102.95 90.12 103.94 93.95L111.20 93.95C110.82 87.03 104.46 80.11 94.02 80.11C82.24 80.11 75.28 88.83 75.28 100.99ZM120.01 93.77C120.01 101.94 126.93 104.52 135.35 106.23C141.67 107.48 146.70 108.47 146.70 113.58C146.70 117.41 143.56 120.67 136.64 120.67C130.63 120.67 127.10 117.96 126.46 113.84L119.24 113.84C119.24 121.96 126.16 126.73 136.08 126.73C146.70 126.73 153.96 121.66 153.96 112.68C153.96 103.87 146.82 101.59 138.36 100.09C133.20 99.14 127.23 98.07 127.23 93C127.23 88.53 131.10 86.17 136.47 86.17C143.52 86.17 145.66 90.21 145.92 93.64L152.80 93.64C152.80 86.17 147.34 80.11 136.73 80.11C128.05 80.11 120.01 84.23 120.01 93.77ZM167.32 80.84L161.22 80.84L161.22 87.03L167.28 87.03L167.28 113.37C167.28 122.26 169.47 126.39 180.17 126.39C181.71 126.39 183.26 126.21 183.91 126.09L183.91 120.16C183.30 120.24 182.75 120.24 182.02 120.24C176.47 120.24 174.67 118.87 174.67 113.45L174.67 87.03L183.61 87.03L183.61 80.84L174.67 80.84L174.67 69.58L167.32 69.58Z"/>
</svg>
